<svg xmlns="http://www.w3.org/2000/svg" width="1100" height="640" viewBox="0 0 1100 640">
<rect width="1100" height="640" fill="#0d1117"/>
<rect x="18" y="18" width="1064" height="604" rx="28" fill="#0d1117" stroke="#2F6F6D" stroke-width="2"/>
<line x1="550" y1="18" x2="550" y2="622" stroke="#30363d" stroke-width="1"/>
<line x1="55" y1="210" x2="505" y2="210" stroke="#30363d"/>
<line x1="55" y1="415" x2="505" y2="415" stroke="#30363d"/>
<line x1="595" y1="210" x2="1045" y2="210" stroke="#30363d"/>
<line x1="595" y1="415" x2="1045" y2="415" stroke="#30363d"/>

<g font-family="-apple-system,BlinkMacSystemFont,'Segoe UI',Arial,sans-serif" fill="#e6edf3" font-size="25" font-weight="700">
<text x="55" y="72">💻 Languages</text>
<text x="595" y="72">🗄️ Databases</text>
<text x="55" y="270">🎨 Frontend</text>
<text x="595" y="270">📊 Data Science &amp; ML</text>
<text x="55" y="475">⚙️ Backend</text>
<text x="595" y="475">🛠️ Developer Tools</text>
</g>

<g>
<rect x="55" y="105" width="62" height="62" rx="14" fill="#161b22" stroke="#2F6F6D"/>
<image href="https://skillicons.dev/icons?i=python&amp;theme=dark" x="63" y="113" width="46" height="46"/>
<rect x="145" y="105" width="62" height="62" rx="14" fill="#161b22" stroke="#2F6F6D"/>
<image href="https://skillicons.dev/icons?i=js&amp;theme=dark" x="153" y="113" width="46" height="46"/>
<rect x="235" y="105" width="62" height="62" rx="14" fill="#161b22" stroke="#2F6F6D"/>
<image href="https://skillicons.dev/icons?i=html&amp;theme=dark" x="243" y="113" width="46" height="46"/>
<rect x="325" y="105" width="62" height="62" rx="14" fill="#161b22" stroke="#2F6F6D"/>
<image href="https://skillicons.dev/icons?i=css&amp;theme=dark" x="333" y="113" width="46" height="46"/>
<rect x="415" y="105" width="62" height="62" rx="14" fill="#161b22" stroke="#2F6F6D"/>
<image href="https://skillicons.dev/icons?i=mysql&amp;theme=dark" x="423" y="113" width="46" height="46"/>

<rect x="595" y="105" width="62" height="62" rx="14" fill="#161b22" stroke="#2F6F6D"/>
<image href="https://skillicons.dev/icons?i=mongodb&amp;theme=dark" x="603" y="113" width="46" height="46"/>
<rect x="685" y="105" width="62" height="62" rx="14" fill="#161b22" stroke="#2F6F6D"/>
<image href="https://skillicons.dev/icons?i=mysql&amp;theme=dark" x="693" y="113" width="46" height="46"/>

<rect x="55" y="300" width="62" height="62" rx="14" fill="#161b22" stroke="#2F6F6D"/>
<image href="https://skillicons.dev/icons?i=react&amp;theme=dark" x="63" y="308" width="46" height="46"/>
<rect x="145" y="300" width="62" height="62" rx="14" fill="#161b22" stroke="#2F6F6D"/>
<image href="https://skillicons.dev/icons?i=tailwind&amp;theme=dark" x="153" y="308" width="46" height="46"/>

<rect x="595" y="300" width="62" height="62" rx="14" fill="#161b22" stroke="#2F6F6D"/>
<image href="https://skillicons.dev/icons?i=python&amp;theme=dark" x="603" y="308" width="46" height="46"/>
<rect x="685" y="300" width="62" height="62" rx="14" fill="#161b22" stroke="#2F6F6D"/>
<image href="https://skillicons.dev/icons?i=pandas&amp;theme=dark" x="693" y="308" width="46" height="46"/>
<rect x="775" y="300" width="62" height="62" rx="14" fill="#161b22" stroke="#2F6F6D"/>
<image href="https://skillicons.dev/icons?i=sklearn&amp;theme=dark" x="783" y="308" width="46" height="46"/>

<rect x="55" y="505" width="62" height="62" rx="14" fill="#161b22" stroke="#2F6F6D"/>
<image href="https://skillicons.dev/icons?i=nodejs&amp;theme=dark" x="63" y="513" width="46" height="46"/>
<rect x="145" y="505" width="62" height="62" rx="14" fill="#161b22" stroke="#2F6F6D"/>
<image href="https://skillicons.dev/icons?i=express&amp;theme=dark" x="153" y="513" width="46" height="46"/>

<rect x="595" y="505" width="62" height="62" rx="14" fill="#161b22" stroke="#2F6F6D"/>
<image href="https://skillicons.dev/icons?i=git&amp;theme=dark" x="603" y="513" width="46" height="46"/>
<rect x="685" y="505" width="62" height="62" rx="14" fill="#161b22" stroke="#2F6F6D"/>
<image href="https://skillicons.dev/icons?i=github&amp;theme=dark" x="693" y="513" width="46" height="46"/>
<rect x="775" y="505" width="62" height="62" rx="14" fill="#161b22" stroke="#2F6F6D"/>
<image href="https://skillicons.dev/icons?i=vscode&amp;theme=dark" x="783" y="513" width="46" height="46"/>
<rect x="865" y="505" width="62" height="62" rx="14" fill="#161b22" stroke="#2F6F6D"/>
<image href="https://skillicons.dev/icons?i=postman&amp;theme=dark" x="873" y="513" width="46" height="46"/>
</g>
</svg>
